<?xml version="1.0" standalone="no"?>
<!DOCTYPE svg PUBLIC "-//W3C//DTD SVG 20010904//EN"
 "http://www.w3.org/TR/2001/REC-SVG-20010904/DTD/svg10.dtd">
<svg version="1.0" xmlns="http://www.w3.org/2000/svg"
 width="400.000000pt" height="400.000000pt" viewBox="0 0 400.000000 400.000000"
 preserveAspectRatio="xMidYMid meet">
<metadata>
Created by potrace 1.14, written by Peter Selinger 2001-2017
</metadata>
<g transform="translate(0.000000,400.000000) scale(0.100000,-0.100000)"
fill="#000000" stroke="none">
<path d="M877 3989 c-112 -16 -293 -73 -317 -99 -3 -3 -11 -6 -19 -8 -17 -4
-137 -81 -171 -111 -118 -102 -219 -233 -273 -351 -37 -84 -76 -216 -86 -300
-11 -83 -9 -2206 2 -2255 36 -166 35 -164 69 -245 63 -154 180 -306 318 -415
40 -31 154 -98 168 -98 6 0 12 -3 12 -7 0 -9 174 -66 230 -76 25 -4 56 -9 70
-12 14 -3 507 -7 1095 -8 908 -2 1084 -1 1165 12 52 8 100 16 105 18 6 2 13 4
17 5 44 8 208 79 219 94 3 5 9 8 12 8 11 -1 67 34 67 42 0 4 7 7 15 7 20 0
204 183 242 240 77 116 144 280 158 389 2 14 4 26 5 26 12 0 15 268 15 1155 0
1013 -3 1157 -25 1214 -5 14 -7 26 -5 26 9 0 -58 176 -87 230 -151 278 -421
467 -732 515 -95 15 -2172 18 -2269 4z"/>
</g>
</svg>
